<?xml version="1.0" encoding="UTF-8"?>
<svg width="1535px" height="1020px" viewBox="0 0 1535 1020" version="1.1" xmlns="http://www.w3.org/2000/svg" xmlns:xlink="http://www.w3.org/1999/xlink">
    <title>stacked</title>
    <g id="Logos" stroke="none" stroke-width="1" fill="none" fill-rule="evenodd">
        <g id="New-Logo-Stacked" transform="translate(-2320.000000, -408.000000)">
            <g id="stacked" transform="translate(2320.685500, 408.853950)">
                <path d="M86.21,913.86965 L56.854,913.86965 L56.854,862.35165 L86.21,862.35165 C107.261,862.35165 116.119,870.10565 116.119,888.10765 C116.119,906.11065 107.261,913.86965 86.21,913.86965 M89.811,826.89865 L24.315,826.89865 L15.305,826.89865 L0,826.89865 L15.305,862.35165 L15.305,1015.24165 L56.854,1015.24165 L56.854,949.32165 L89.811,949.32165 C137.446,949.32165 157.668,931.31965 157.668,888.38465 C157.668,845.17865 137.446,826.89865 89.811,826.89865" id="Fill-16" fill="#FEFEFE"></path>
                <path d="M262.9512,910.26905 L231.9372,910.26905 L231.9372,862.35205 L262.9512,862.35205 C283.1742,862.35205 290.3752,869.27705 290.3752,886.44605 C290.3752,903.34405 283.1742,910.26905 262.9512,910.26905 M331.9242,886.44605 C331.9242,844.34905 313.6452,826.89905 267.3902,826.89905 L199.4002,826.89905 L190.3882,826.89905 L175.0842,826.89905 L190.3882,862.35205 L190.3882,1015.24205 L231.9372,1015.24205 L231.9372,945.72105 L254.3692,945.72105 L291.7562,1015.24205 L339.1252,1015.24205 L298.4042,941.84505 C321.9512,934.92005 331.9242,917.19405 331.9242,886.44605" id="Fill-17" fill="#FEFEFE"></path>
                <polygon id="Fill-18" fill="#FEFEFE" points="584.2862 859.02785 584.2862 826.89885 460.4482 826.89885 451.6192 826.89885 436.1272 826.89885 451.4362 862.35185 451.6192 862.35185 451.6192 862.62885 532.7642 862.62885 446.6282 982.83685 446.6282 1015.24185 586.5062 1015.24185 586.5062 979.51185 498.1492 979.51185"></polygon>
                <polygon id="Fill-19" fill="#FEFEFE" points="661.8799 937.13425 735.5479 937.13425 735.5479 901.68225 661.8799 901.68225 661.8799 862.62825 749.3979 862.62825 749.3979 826.89925 629.4159 826.89925 620.3309 826.89925 605.1009 826.89925 620.3309 862.18125 620.3309 1015.24125 752.1689 1015.24125 752.1689 979.51225 661.8799 979.51225"></polygon>
                <path d="M1119.2354,859.30415 C1141.3904,859.30415 1150.2584,869.82915 1151.0884,894.75615 L1190.6934,894.75615 C1189.5894,846.01115 1166.8714,823.57515 1118.6824,823.57515 C1068.8284,823.57515 1045.5574,847.66815 1045.5574,900.01915 L1045.5574,942.12015 C1045.5574,994.46615 1068.8284,1018.56615 1118.6824,1018.56615 C1166.8714,1018.56615 1189.5894,996.12815 1190.6934,947.65915 L1151.0884,947.65915 C1150.2584,972.31115 1141.3904,982.83615 1119.2354,982.83615 C1095.9644,982.83615 1087.1064,971.20115 1087.1064,941.28715 L1087.1064,900.84815 C1087.1064,870.93915 1095.9644,859.30415 1119.2354,859.30415" id="Fill-20" fill="#FEFEFE"></path>
                <polygon id="Fill-21" fill="#FEFEFE" points="1381.2842 826.89895 1333.6492 826.89895 1269.6682 909.15895 1269.6682 826.89895 1237.0912 826.89895 1228.1192 826.89895 1212.7702 826.89895 1228.0802 862.35195 1228.1192 862.35195 1228.1192 1015.24195 1269.6682 1015.24195 1269.6682 965.38595 1291.8242 937.13395 1334.7542 1015.24195 1382.1132 1015.24195 1320.6282 904.17195"></polygon>
                <path d="M1474.6514,901.68215 C1448.0564,897.80515 1438.3704,891.43215 1438.3704,877.30615 C1438.3704,864.84315 1447.2284,857.36615 1464.4024,857.36615 C1482.4054,857.36615 1490.9974,865.67615 1490.9974,882.01715 L1531.4314,882.01715 C1531.4314,842.41115 1509.5514,823.57515 1465.2314,823.57515 C1420.3674,823.57515 1396.8214,842.96315 1396.8214,881.46415 C1396.8214,915.80715 1412.6044,931.32015 1454.4294,937.96315 C1482.4054,942.39715 1492.3784,949.04515 1492.3784,964.55315 C1492.3784,978.12615 1483.2334,984.77515 1464.9554,984.77515 C1444.7324,984.77515 1434.4934,976.74115 1434.4934,958.46115 L1394.0484,958.46115 C1394.0484,999.72915 1415.9284,1018.56615 1463.8504,1018.56615 C1510.9334,1018.56615 1533.9264,999.45315 1533.9264,960.40015 C1533.9264,924.94715 1518.6864,908.05415 1474.6514,901.68215" id="Fill-22" fill="#FEFEFE"></path>
                <polygon id="Fill-23" fill="#FEFEFE" points="371.2833 826.89895 355.9783 826.89895 371.2833 862.35195 371.2833 1015.24195 412.8323 1015.24195 412.8323 826.89895 380.2943 826.89895"></polygon>
                <path d="M859.3858,913.86965 L830.0298,913.86965 L830.0298,862.35165 L859.3858,862.35165 C880.4368,862.35165 889.2948,870.10565 889.2948,888.10765 C889.2948,906.11065 880.4368,913.86965 859.3858,913.86965 M862.9868,826.89865 L797.4908,826.89865 L788.4808,826.89865 L773.1758,826.89865 L788.4808,862.35165 L788.4808,1015.24165 L830.0298,1015.24165 L830.0298,949.32165 L862.9868,949.32165 C910.6218,949.32165 930.8438,931.31965 930.8438,888.38465 C930.8438,845.17865 910.6218,826.89865 862.9868,826.89865" id="Fill-24" fill="#FEFEFE"></path>
                <polygon id="Fill-25" fill="#FEFEFE" points="963.5645 826.89895 948.2595 826.89895 963.5645 862.35195 963.5645 1015.24195 1005.1135 1015.24195 1005.1135 826.89895 972.5765 826.89895"></polygon>
                <path d="M896.9229,52.42725 C827.0209,-17.47575 713.2779,-17.47575 643.3759,52.42725 L364.0459,331.75825 L361.3509,334.45225 L643.3759,616.47925 C677.1859,650.28825 722.2069,668.90625 770.1499,668.90625 C818.0919,668.90625 863.1139,650.28825 896.9239,616.47925 L1176.2529,337.14725 L1178.9479,334.45225 L896.9229,52.42725 Z" id="Fill-26" fill="#A4A4A4"></path>
                <path d="M667.4639,76.51515 L409.5259,334.45215 L667.4639,592.39015 C724.0849,649.01215 816.2139,649.01215 872.8359,592.39015 L1130.7739,334.45215 L872.8359,76.51515 C816.2139,19.89415 724.0849,19.89415 667.4639,76.51515" id="Fill-27" fill="#000000"></path>
                <path d="M804.4991,130.42435 C778.7661,104.69135 736.9501,104.78435 711.1021,130.63335 L507.3021,334.43235 L513.6911,340.82235 L601.8191,428.94935 L631.2371,458.36835 L638.7151,465.84635 L652.3431,479.47435 C652.3431,479.47435 646.9741,460.78935 675.0281,429.53335 L717.6121,386.94935 L680.7161,350.05335 L804.2841,226.48635 C830.8691,199.90035 830.9661,156.89135 804.4991,130.42435" id="Fill-28" fill="#D6972E"></path>
                <path d="M1026.5665,328.04245 L938.4385,239.91445 L901.5435,203.01945 L888.1535,189.62945 C888.1535,189.62945 893.1025,206.87345 868.6245,235.93745 L822.6465,281.91545 L859.5425,318.81145 L735.9745,442.37945 C709.3885,468.96545 709.2925,511.97445 735.7585,538.44045 C761.4925,564.17445 803.3085,564.08045 829.1575,538.23145 L1032.9575,334.43245 L1026.5665,328.04245 Z" id="Fill-29" fill="#A4A4A4"></path>
                <polygon id="Fill-30" fill="#000000" points="853.3702 444.40475 901.6872 465.70175 880.3912 417.38375 905.8542 366.73475 855.2052 392.19875 806.8882 370.90175 828.1842 419.21875 802.7202 469.86975"></polygon>
                <polygon id="Fill-31" fill="#000000" points="685.3418 276.37745 733.6588 297.67445 712.3628 249.35645 737.8268 198.70645 687.1778 224.17145 638.8598 202.87445 660.1558 251.19145 634.6918 301.84245"></polygon>
            </g>
        </g>
    </g>
</svg>